<?xml version="1.0" encoding="UTF-8" standalone="no"?><!DOCTYPE svg PUBLIC "-//W3C//DTD SVG 1.1//EN" "http://www.w3.org/Graphics/SVG/1.1/DTD/svg11.dtd"><svg width="100%" height="100%" viewBox="0 0 534 538" version="1.1" xmlns="http://www.w3.org/2000/svg" xmlns:xlink="http://www.w3.org/1999/xlink" xml:space="preserve" xmlns:serif="http://www.serif.com/" style="fill-rule:evenodd;clip-rule:evenodd;stroke-linejoin:round;stroke-miterlimit:2;"><rect id="symbol" x="0" y="0.291" width="533.333" height="533.333" style="fill:none;"/><path d="M313.223,329.51c8.471,-14.672 27.26,-19.707 41.932,-11.236c14.672,8.471 19.707,27.26 11.236,41.932l-59.549,103.142c-35.514,61.512 -116.745,82.644 -180.143,46.041c-63.398,-36.603 -85.712,-117.517 -50.198,-179.029l39.699,-68.761c6.166,-10.679 18.123,-16.632 30.361,-15.115c12.238,1.517 22.379,10.21 25.75,22.072l23.378,82.258c4.631,16.296 -4.839,33.287 -21.136,37.919c-16.296,4.631 -33.287,-4.839 -37.919,-21.136l-3.544,-12.469l-3.423,5.928c-18.933,32.792 -6.071,75.652 27.727,95.165c33.798,19.513 77.346,9.222 96.279,-23.57l59.549,-103.142Zm-93.112,-125.105c-8.471,14.672 -27.26,19.707 -41.932,11.236c-14.672,-8.471 -19.707,-27.26 -11.236,-41.932l59.549,-103.142c35.514,-61.512 116.745,-82.644 180.143,-46.041c63.398,36.603 85.712,117.517 50.198,179.029l-39.699,68.761c-6.166,10.679 -18.123,16.632 -30.361,15.115c-12.238,-1.517 -22.379,-10.21 -25.75,-22.072l-23.378,-82.258c-4.631,-16.296 4.839,-33.287 21.136,-37.919c16.296,-4.631 33.287,4.839 37.919,21.136l3.544,12.469l3.423,-5.928c18.933,-32.792 6.071,-75.652 -27.727,-95.165c-33.798,-19.513 -77.346,-9.222 -96.279,23.57l-59.549,103.142Z" style="fill:#ee5340;"/></svg>