<?xml version="1.0" encoding="UTF-8" standalone="no"?><!DOCTYPE svg PUBLIC "-//W3C//DTD SVG 1.1//EN" "http://www.w3.org/Graphics/SVG/1.1/DTD/svg11.dtd"><svg width="100%" height="100%" viewBox="0 0 1375 375" version="1.1" xmlns="http://www.w3.org/2000/svg" xmlns:xlink="http://www.w3.org/1999/xlink" xml:space="preserve" xmlns:serif="http://www.serif.com/" style="fill-rule:evenodd;clip-rule:evenodd;stroke-linejoin:round;stroke-miterlimit:2;"><rect id="logo" x="0" y="0" width="1375" height="375" style="fill:none;"/><g><path d="M291.667,161.464l32.25,0l25.083,83.184l24.571,-83.184l28.155,0l24.571,83.184l25.083,-83.184l32.25,0l-40.184,122.856l-29.69,0l-26.107,-83.44l-26.107,83.44l-29.69,0l-40.184,-122.856Z" style="fill:#1a1a1a;fill-rule:nonzero;"/><path d="M522.022,95.173l32.25,0l0,81.904c11.603,-12.968 26.619,-19.452 45.047,-19.452c16.551,0 28.922,4.479 37.113,13.437c8.19,8.958 12.286,20.86 12.286,35.705l0,77.553l-32.25,0l0,-74.482c0,-17.917 -8.361,-26.875 -25.083,-26.875c-7.337,0 -14.248,1.749 -20.732,5.247c-6.484,3.498 -11.944,8.745 -16.381,15.741l0,80.369l-32.25,0l0,-189.148Z" style="fill:#1a1a1a;fill-rule:nonzero;"/><path d="M753.914,288.16c-14.333,0 -26.917,-2.602 -37.753,-7.807c-10.835,-5.204 -19.239,-12.712 -25.211,-22.524c-5.972,-9.811 -8.958,-21.457 -8.958,-34.937c0,-13.139 2.943,-24.614 8.83,-34.425c5.887,-9.811 14.291,-17.405 25.211,-22.78c10.921,-5.375 23.547,-8.062 37.881,-8.062c14.333,0 26.917,2.687 37.753,8.062c10.835,5.375 19.239,12.968 25.211,22.78c5.972,9.811 8.958,21.287 8.958,34.425c0,13.48 -2.986,25.126 -8.958,34.937c-5.972,9.811 -14.376,17.319 -25.211,22.524c-10.835,5.204 -23.42,7.807 -37.753,7.807Zm0,-25.339c11.774,0 21.159,-3.711 28.155,-11.134c6.996,-7.423 10.494,-17.021 10.494,-28.794c0,-12.456 -3.455,-22.225 -10.366,-29.306c-6.911,-7.081 -16.338,-10.622 -28.283,-10.622c-11.944,0 -21.372,3.541 -28.283,10.622c-6.911,7.081 -10.366,16.85 -10.366,29.306c0,11.774 3.498,21.372 10.494,28.794c6.996,7.423 16.381,11.134 28.155,11.134Z" style="fill:#1a1a1a;fill-rule:nonzero;"/><path d="M924.633,288.16c-14.333,0 -26.917,-2.602 -37.753,-7.807c-10.835,-5.204 -19.239,-12.712 -25.211,-22.524c-5.972,-9.811 -8.958,-21.457 -8.958,-34.937c0,-13.139 2.943,-24.614 8.83,-34.425c5.887,-9.811 14.291,-17.405 25.211,-22.78c10.921,-5.375 23.547,-8.062 37.881,-8.062c14.333,0 26.917,2.687 37.753,8.062c10.835,5.375 19.239,12.968 25.211,22.78c5.972,9.811 8.958,21.287 8.958,34.425c0,13.48 -2.986,25.126 -8.958,34.937c-5.972,9.811 -14.376,17.319 -25.211,22.524c-10.835,5.204 -23.42,7.807 -37.753,7.807Zm0,-25.339c11.774,0 21.159,-3.711 28.155,-11.134c6.996,-7.423 10.494,-17.021 10.494,-28.794c0,-12.456 -3.455,-22.225 -10.366,-29.306c-6.911,-7.081 -16.338,-10.622 -28.283,-10.622c-11.944,0 -21.372,3.541 -28.283,10.622c-6.911,7.081 -10.366,16.85 -10.366,29.306c0,11.774 3.498,21.372 10.494,28.794c6.996,7.423 16.381,11.134 28.155,11.134Z" style="fill:#1a1a1a;fill-rule:nonzero;"/><path d="M1034.948,95.173l32.25,0l0,120.297l48.887,-54.006l37.881,0l-54.773,60.148l60.916,62.708l-37.881,0l-55.029,-56.821l0,56.821l-32.25,0l0,-189.148Z" style="fill:#1a1a1a;fill-rule:nonzero;"/><path d="M1237.405,288.16c-8.873,0 -18.343,-1.024 -28.411,-3.071c-10.067,-2.048 -17.917,-4.863 -23.547,-8.446l0,-27.387c6.655,4.095 14.589,7.38 23.803,9.854c9.214,2.474 17.917,3.711 26.107,3.711c8.19,0 14.163,-0.725 17.917,-2.176c3.754,-1.45 5.631,-4.138 5.631,-8.062c0,-3.071 -0.981,-5.588 -2.943,-7.551c-1.962,-1.962 -5.119,-3.754 -9.47,-5.375c-4.351,-1.621 -11.049,-3.626 -20.092,-6.015c-10.238,-2.901 -18.3,-5.887 -24.187,-8.958c-5.887,-3.071 -10.323,-6.953 -13.309,-11.646c-2.986,-4.692 -4.479,-10.793 -4.479,-18.3c0,-12.286 4.863,-21.543 14.589,-27.771c9.726,-6.228 22.865,-9.342 39.416,-9.342c8.532,0 17.021,0.811 25.467,2.432c8.446,1.621 15.058,3.882 19.836,6.783l0,26.363c-5.119,-3.071 -11.347,-5.546 -18.684,-7.423c-7.337,-1.877 -14.845,-2.815 -22.524,-2.815c-8.361,0 -14.675,0.811 -18.94,2.432c-4.266,1.621 -6.399,4.735 -6.399,9.342c0,3.071 1.152,5.503 3.455,7.295c2.304,1.792 5.332,3.327 9.086,4.607c3.754,1.28 10.579,3.199 20.476,5.759c10.579,2.901 18.855,6.058 24.827,9.47c5.972,3.413 10.238,7.508 12.798,12.286c2.56,4.778 3.839,10.75 3.839,17.917c0,10.921 -4.65,19.666 -13.949,26.235c-9.3,6.569 -22.737,9.854 -40.312,9.854Z" style="fill:#1a1a1a;fill-rule:nonzero;"/></g><path d="M186.603,217.139c3.449,-5.975 11.101,-8.025 17.075,-4.575c5.975,3.449 8.025,11.101 4.575,17.075l-24.249,42.001c-14.462,25.049 -47.54,33.654 -73.357,18.749c-25.817,-14.905 -34.903,-47.855 -20.442,-72.903l16.166,-28.001c2.511,-4.349 7.38,-6.773 12.363,-6.155c4.983,0.618 9.113,4.158 10.486,8.988l9.52,33.497c1.886,6.636 -1.971,13.555 -8.607,15.441c-6.636,1.886 -13.555,-1.971 -15.441,-8.607l-1.443,-5.077l-1.394,2.414c-7.71,13.354 -2.472,30.807 11.291,38.753c13.763,7.946 31.497,3.755 39.206,-9.598l24.249,-42.001Zm-37.917,-50.945c-3.449,5.975 -11.101,8.025 -17.075,4.575c-5.975,-3.449 -8.025,-11.101 -4.575,-17.075l24.249,-42.001c14.462,-25.049 47.54,-33.654 73.357,-18.749c25.817,14.905 34.903,47.855 20.442,72.903l-16.166,28.001c-2.511,4.349 -7.38,6.773 -12.363,6.155c-4.983,-0.618 -9.113,-4.158 -10.486,-8.988l-9.52,-33.497c-1.886,-6.636 1.971,-13.555 8.607,-15.441c6.636,-1.886 13.555,1.971 15.441,8.607l1.443,5.077l1.394,-2.414c7.71,-13.354 2.472,-30.807 -11.291,-38.753c-13.763,-7.946 -31.497,-3.755 -39.206,9.598l-24.249,42.001Z" style="fill:#ee5340;"/></svg>